<svg xmlns="http://www.w3.org/2000/svg" height="100%" width="100%" xmlns:xlink="http://www.w3.org/1999/xlink" viewBox="-5 -5 404 470">
<path stroke="#000" stroke-width="5" d="m394 135.6s1.56 90-57 186.8c-64 101.3-140 138-140 138s-76-36.67-140-138c-58.65-96.7-57-186.8-57-186.8v-136.5h394.1v136.5z" fill="#15b"/>
<g id="a">
<use xlink:href="#c" stroke="#000" stroke-width="4"/>
<g id="c">
<path d="m191.1 317.3s.62 4.67-.45 11.21c-1.16 7.13-2.91 13.88-9.86 21.96-6.95 8.09-8.1 9.19-8.1 12.55s3.81 9.18 9.19 12.55c5.26 3.29 12.65 3.87 15.1 3.86 2.42 0 9.81-.56 15.1-3.86 5.39-3.36 9.19-9.19 9.19-12.55s-1.14-4.47-8.1-12.55c-6.97-8.1-8.71-14.83-9.86-21.96-1.06-6.54-.45-11.21-.45-11.21m.9-19.22s.34-11.36 6.94-29.2c6.55-17.71 10.89-21.76 10.1-34.3-1.05-16.65-23.1-37.2-23.82-37.85-.73.67-22.76 21.2-23.82 37.85-.8 12.52 3.53 16.57 10.1 34.3 6.6 17.82 6.97 29.2 6.97 29.2" fill="#fcdd09"/>
<g id="b">
<path d="m186.8 299s-2.03-14.27-6.54-25.31c-4.49-11-13.66-28.47-27.1-28.71-15.24-.27-16.84 19.31-16.94 25.38-.23 13.44 7.12 25.86 9.58 25.28 2.47-.58 4.94-9 16.28-9.15 13.45-.18 17.1 10.49 17.1 10.49l.21 2.24 1.13 17.71s.22 5.15-4.26 8.51c-4.48 3.37-9.41 6-15.69 5.38-6.27-.64-9.18-3.8-11.42-2.46-2.24 1.35-3.58 9.41.22 15.23 3.81 5.83 11.66 8.96 19.95 6.28 8.29-2.69 13.1-10.63 15.19-15.64 2.94-7 3.3-11.57 3.59-16.21" fill="#fcdd09"/>
<path d="m165.3 340.9c7.13-.89 12.16-7 15.2-13.1 6.21-12.72 4.3-28.1-2.33-40.3-3.65-6.54-8.21-12.85-14.42-17.2-4.82-3.36-12.1-3.95-16.5.36-2.67 2.43-4 6.19-3.6 9.76-1.14-6.7 4.47-13.48 11.27-13.6 7.64-.3 13.68 5.38 18.22 10.88 9.31 11 15.1 25.95 12.36 40.46-1.62 8.58-6.15 17.23-13.94 21.65-5.49 3.2-13.16 1.88-16.99-3.29-1.8-2.44 1.52 2.07 2.76 2.39 2.33 1.52 5.19 2.2 7.96 1.91z"/>
</g>
<use xlink:href="#b" transform="matrix(-1 0 0 1 394 0)"/>
<use xlink:href="#d"/>
</g>
<path d="m197 209.1v164c3.49-43.81 2.27-101.2 0-164"/>
<g stroke-width="2" stroke="#000" fill="#fcdd09">
<path id="r" d="m218.7 300.3c0 2.14-1.73 3.87-3.85 3.87h-35.75c-2.12 0-3.85-1.73-3.85-3.87 0-2.13 1.73-3.86 3.85-3.86h35.75c2.13 0 3.85 1.73 3.85 3.86z"/>
<use xlink:href="#r" y="15.26"/>
</g>
<path id="d" fill="#fcdd09" d="m221.3 307.9c0 2.14-1.73 3.87-3.86 3.87h-40.98c-2.12 0-3.84-1.73-3.84-3.87 0-2.13 1.73-3.86 3.84-3.86h40.98c2.13 0 3.86 1.73 3.86 3.86z"/>
</g>
<use y="-169.2" x="85.7" xlink:href="#a"/>
<use y="-169.2" x="-85.7" xlink:href="#a"/>
</svg>